<svg width="15" height="15" viewBox="0 0 15 15" fill="none" xmlns="http://www.w3.org/2000/svg">
<path d="M11.2826 2.86758C11.1145 2.86758 10.9501 2.91743 10.8103 3.01083C10.6706 3.10423 10.5616 3.23698 10.4973 3.3923C10.433 3.54762 10.4161 3.71852 10.4489 3.88341C10.4817 4.04829 10.5627 4.19975 10.6815 4.31862C10.8004 4.4375 10.9519 4.51845 11.1168 4.55125C11.2816 4.58405 11.4525 4.56721 11.6079 4.50288C11.7632 4.43854 11.8959 4.3296 11.9893 4.18982C12.0827 4.05003 12.1326 3.8857 12.1326 3.71758C12.1326 3.49215 12.043 3.27595 11.8836 3.11654C11.7242 2.95713 11.508 2.86758 11.2826 2.86758ZM14.5409 4.58175C14.5271 3.99404 14.4171 3.41258 14.2151 2.8605C14.035 2.38813 13.7547 1.9604 13.3934 1.60675C13.0427 1.24367 12.6139 0.965123 12.1397 0.792165C11.589 0.584029 11.0069 0.471438 10.4184 0.459248C9.66758 0.416748 9.42675 0.416748 7.50008 0.416748C5.57341 0.416748 5.33258 0.416748 4.58175 0.459248C3.99323 0.471438 3.41112 0.584029 2.8605 0.792165C2.3871 0.966874 1.95874 1.24519 1.60675 1.60675C1.24367 1.9575 0.965123 2.38623 0.792165 2.8605C0.584029 3.41112 0.471438 3.99323 0.459248 4.58175C0.416748 5.33258 0.416748 5.57341 0.416748 7.50008C0.416748 9.42675 0.416748 9.66758 0.459248 10.4184C0.471438 11.0069 0.584029 11.589 0.792165 12.1397C0.965123 12.6139 1.24367 13.0427 1.60675 13.3934C1.95874 13.755 2.3871 14.0333 2.8605 14.208C3.41112 14.4161 3.99323 14.5287 4.58175 14.5409C5.33258 14.5834 5.57341 14.5834 7.50008 14.5834C9.42675 14.5834 9.66758 14.5834 10.4184 14.5409C11.0069 14.5287 11.589 14.4161 12.1397 14.208C12.6139 14.035 13.0427 13.7565 13.3934 13.3934C13.7563 13.0411 14.0368 12.613 14.2151 12.1397C14.4171 11.5876 14.5271 11.0061 14.5409 10.4184C14.5409 9.66758 14.5834 9.42675 14.5834 7.50008C14.5834 5.57341 14.5834 5.33258 14.5409 4.58175ZM13.2659 10.3334C13.2608 10.783 13.1793 11.2285 13.0251 11.6509C12.912 11.9592 12.7303 12.2377 12.4938 12.4655C12.2641 12.6996 11.9861 12.8809 11.6792 12.9967C11.2569 13.151 10.8114 13.2324 10.3617 13.2376C9.65342 13.273 9.39133 13.2801 7.52842 13.2801C5.6655 13.2801 5.40342 13.2801 4.69508 13.2376C4.22821 13.2463 3.76334 13.1744 3.32091 13.0251C3.02751 12.9033 2.76229 12.7225 2.54175 12.4938C2.30664 12.2663 2.12726 11.9875 2.01758 11.6792C1.84465 11.2508 1.74873 10.7952 1.73425 10.3334C1.73425 9.62508 1.69175 9.363 1.69175 7.50008C1.69175 5.63717 1.69175 5.37508 1.73425 4.66675C1.73742 4.20708 1.82134 3.75154 1.98216 3.32091C2.10686 3.02194 2.29827 2.75542 2.54175 2.54175C2.75695 2.2982 3.02291 2.10477 3.32091 1.97508C3.75268 1.81928 4.20775 1.73785 4.66675 1.73425C5.37508 1.73425 5.63717 1.69175 7.50008 1.69175C9.363 1.69175 9.62508 1.69175 10.3334 1.73425C10.783 1.73941 11.2285 1.82084 11.6509 1.97508C11.9728 2.09454 12.2617 2.28876 12.4938 2.54175C12.726 2.75933 12.9073 3.02535 13.0251 3.32091C13.1825 3.75224 13.264 4.20759 13.2659 4.66675C13.3013 5.37508 13.3084 5.63717 13.3084 7.50008C13.3084 9.363 13.3013 9.62508 13.2659 10.3334ZM7.50008 3.86633C6.7817 3.86773 6.07985 4.08204 5.48321 4.48217C4.88658 4.8823 4.42193 5.4503 4.14799 6.11441C3.87404 6.77851 3.80309 7.50891 3.9441 8.21332C4.08511 8.91774 4.43175 9.56454 4.94022 10.072C5.44869 10.5795 6.09617 10.9249 6.80086 11.0645C7.50554 11.2042 8.2358 11.1318 8.89937 10.8565C9.56294 10.5813 10.13 10.1156 10.529 9.51815C10.928 8.92073 11.1409 8.21847 11.1409 7.50008C11.1419 7.02203 11.0483 6.54851 10.8655 6.10676C10.6828 5.66501 10.4146 5.26374 10.0762 4.92603C9.73783 4.58833 9.33605 4.32085 8.89394 4.13899C8.45183 3.95713 7.97813 3.86446 7.50008 3.86633ZM7.50008 9.85883C7.03357 9.85883 6.57752 9.72049 6.18963 9.46131C5.80174 9.20213 5.49941 8.83374 5.32088 8.40274C5.14235 7.97173 5.09564 7.49747 5.18665 7.03991C5.27767 6.58236 5.50232 6.16207 5.83219 5.83219C6.16207 5.50232 6.58236 5.27767 7.03991 5.18665C7.49747 5.09564 7.97173 5.14235 8.40274 5.32088C8.83374 5.49941 9.20213 5.80174 9.46131 6.18963C9.72049 6.57752 9.85883 7.03357 9.85883 7.50008C9.85883 7.80984 9.79782 8.11656 9.67928 8.40274C9.56074 8.68891 9.387 8.94894 9.16797 9.16797C8.94894 9.387 8.68891 9.56074 8.40274 9.67928C8.11656 9.79782 7.80984 9.85883 7.50008 9.85883Z" fill="#24314A"/>
</svg>
