<svg width="15" height="15" viewBox="0 0 15 15" fill="none" xmlns="http://www.w3.org/2000/svg">
<path d="M11.2823 2.86758C11.1142 2.86758 10.9499 2.91743 10.8101 3.01083C10.6703 3.10423 10.5614 3.23698 10.497 3.3923C10.4327 3.54762 10.4159 3.71852 10.4487 3.88341C10.4815 4.04829 10.5624 4.19975 10.6813 4.31862C10.8002 4.4375 10.9516 4.51845 11.1165 4.55125C11.2814 4.58405 11.4523 4.56721 11.6076 4.50288C11.7629 4.43854 11.8957 4.3296 11.9891 4.18982C12.0825 4.05003 12.1323 3.8857 12.1323 3.71758C12.1323 3.49215 12.0428 3.27595 11.8834 3.11654C11.724 2.95713 11.5078 2.86758 11.2823 2.86758ZM14.5407 4.58175C14.5269 3.99404 14.4168 3.41258 14.2148 2.8605C14.0347 2.38813 13.7544 1.9604 13.3932 1.60675C13.0424 1.24367 12.6137 0.965123 12.1394 0.792165C11.5888 0.584029 11.0067 0.471438 10.4182 0.459248C9.66734 0.416748 9.4265 0.416748 7.49984 0.416748C5.57317 0.416748 5.33234 0.416748 4.5815 0.459248C3.99299 0.471438 3.41087 0.584029 2.86025 0.792165C2.38686 0.966874 1.9585 1.24519 1.6065 1.60675C1.24343 1.9575 0.964879 2.38623 0.791921 2.8605C0.583784 3.41112 0.471194 3.99323 0.459004 4.58175C0.416504 5.33258 0.416504 5.57341 0.416504 7.50008C0.416504 9.42675 0.416504 9.66758 0.459004 10.4184C0.471194 11.0069 0.583784 11.589 0.791921 12.1397C0.964879 12.6139 1.24343 13.0427 1.6065 13.3934C1.9585 13.755 2.38686 14.0333 2.86025 14.208C3.41087 14.4161 3.99299 14.5287 4.5815 14.5409C5.33234 14.5834 5.57317 14.5834 7.49984 14.5834C9.4265 14.5834 9.66734 14.5834 10.4182 14.5409C11.0067 14.5287 11.5888 14.4161 12.1394 14.208C12.6137 14.035 13.0424 13.7565 13.3932 13.3934C13.756 13.0411 14.0366 12.613 14.2148 12.1397C14.4168 11.5876 14.5269 11.0061 14.5407 10.4184C14.5407 9.66758 14.5832 9.42675 14.5832 7.50008C14.5832 5.57341 14.5832 5.33258 14.5407 4.58175ZM13.2657 10.3334C13.2605 10.783 13.1791 11.2285 13.0248 11.6509C12.9117 11.9592 12.7301 12.2377 12.4936 12.4655C12.2638 12.6996 11.9859 12.8809 11.679 12.9967C11.2566 13.151 10.8111 13.2324 10.3615 13.2376C9.65317 13.273 9.39109 13.2801 7.52817 13.2801C5.66525 13.2801 5.40317 13.2801 4.69484 13.2376C4.22797 13.2463 3.76309 13.1744 3.32067 13.0251C3.02727 12.9033 2.76205 12.7225 2.5415 12.4938C2.3064 12.2663 2.12702 11.9875 2.01734 11.6792C1.8444 11.2508 1.74848 10.7952 1.734 10.3334C1.734 9.62508 1.6915 9.363 1.6915 7.50008C1.6915 5.63717 1.6915 5.37508 1.734 4.66675C1.73718 4.20708 1.82109 3.75154 1.98192 3.32091C2.10662 3.02194 2.29803 2.75542 2.5415 2.54175C2.75671 2.2982 3.02267 2.10477 3.32067 1.97508C3.75244 1.81928 4.2075 1.73785 4.6665 1.73425C5.37484 1.73425 5.63692 1.69175 7.49984 1.69175C9.36275 1.69175 9.62484 1.69175 10.3332 1.73425C10.7828 1.73941 11.2283 1.82084 11.6507 1.97508C11.9726 2.09454 12.2615 2.28876 12.4936 2.54175C12.7257 2.75933 12.9071 3.02535 13.0248 3.32091C13.1823 3.75224 13.2638 4.20759 13.2657 4.66675C13.3011 5.37508 13.3082 5.63717 13.3082 7.50008C13.3082 9.363 13.3011 9.62508 13.2657 10.3334ZM7.49984 3.86633C6.78145 3.86773 6.0796 4.08204 5.48297 4.48217C4.88633 4.8823 4.42169 5.4503 4.14774 6.11441C3.8738 6.77851 3.80285 7.50891 3.94386 8.21332C4.08487 8.91774 4.4315 9.56454 4.93997 10.072C5.44844 10.5795 6.09593 10.9249 6.80061 11.0645C7.5053 11.2042 8.23556 11.1318 8.89913 10.8565C9.5627 10.5813 10.1298 10.1156 10.5288 9.51815C10.9277 8.92073 11.1407 8.21847 11.1407 7.50008C11.1416 7.02203 11.048 6.54851 10.8653 6.10676C10.6826 5.66501 10.4143 5.26374 10.076 4.92603C9.73759 4.58833 9.3358 4.32085 8.89369 4.13899C8.45159 3.95713 7.97789 3.86446 7.49984 3.86633ZM7.49984 9.85883C7.03332 9.85883 6.57728 9.72049 6.18939 9.46131C5.80149 9.20213 5.49916 8.83374 5.32064 8.40274C5.14211 7.97173 5.0954 7.49747 5.18641 7.03991C5.27742 6.58236 5.50207 6.16207 5.83195 5.83219C6.16183 5.50232 6.58212 5.27767 7.03967 5.18665C7.49722 5.09564 7.97149 5.14235 8.40249 5.32088C8.8335 5.49941 9.20188 5.80174 9.46107 6.18963C9.72025 6.57752 9.85859 7.03357 9.85859 7.50008C9.85859 7.80984 9.79758 8.11656 9.67904 8.40274C9.5605 8.68891 9.38676 8.94894 9.16773 9.16797C8.9487 9.387 8.68867 9.56074 8.40249 9.67928C8.11632 9.79782 7.80959 9.85883 7.49984 9.85883Z" fill="#F2F3F6"/>
</svg>
