<svg width="15" height="15" viewBox="0 0 15 15" fill="none" xmlns="http://www.w3.org/2000/svg">
<path d="M11.2825 2.86758C11.1143 2.86758 10.95 2.91743 10.8102 3.01083C10.6704 3.10423 10.5615 3.23698 10.4972 3.3923C10.4328 3.54762 10.416 3.71852 10.4488 3.88341C10.4816 4.04829 10.5625 4.19975 10.6814 4.31862C10.8003 4.4375 10.9517 4.51845 11.1166 4.55125C11.2815 4.58405 11.4524 4.56721 11.6077 4.50288C11.7631 4.43854 11.8958 4.3296 11.9892 4.18982C12.0826 4.05003 12.1325 3.8857 12.1325 3.71758C12.1325 3.49215 12.0429 3.27595 11.8835 3.11654C11.7241 2.95713 11.5079 2.86758 11.2825 2.86758ZM14.5408 4.58175C14.527 3.99404 14.4169 3.41258 14.215 2.8605C14.0349 2.38813 13.7545 1.9604 13.3933 1.60675C13.0425 1.24367 12.6138 0.965123 12.1395 0.792165C11.5889 0.584029 11.0068 0.471438 10.4183 0.459248C9.66746 0.416748 9.42663 0.416748 7.49996 0.416748C5.57329 0.416748 5.33246 0.416748 4.58163 0.459248C3.99311 0.471438 3.41099 0.584029 2.86038 0.792165C2.38698 0.966874 1.95862 1.24519 1.60663 1.60675C1.24355 1.9575 0.965001 2.38623 0.792043 2.8605C0.583907 3.41112 0.471316 3.99323 0.459126 4.58175C0.416626 5.33258 0.416626 5.57341 0.416626 7.50008C0.416626 9.42675 0.416626 9.66758 0.459126 10.4184C0.471316 11.0069 0.583907 11.589 0.792043 12.1397C0.965001 12.6139 1.24355 13.0427 1.60663 13.3934C1.95862 13.755 2.38698 14.0333 2.86038 14.208C3.41099 14.4161 3.99311 14.5287 4.58163 14.5409C5.33246 14.5834 5.57329 14.5834 7.49996 14.5834C9.42663 14.5834 9.66746 14.5834 10.4183 14.5409C11.0068 14.5287 11.5889 14.4161 12.1395 14.208C12.6138 14.035 13.0425 13.7565 13.3933 13.3934C13.7561 13.0411 14.0367 12.613 14.215 12.1397C14.4169 11.5876 14.527 11.0061 14.5408 10.4184C14.5408 9.66758 14.5833 9.42675 14.5833 7.50008C14.5833 5.57341 14.5833 5.33258 14.5408 4.58175ZM13.2658 10.3334C13.2606 10.783 13.1792 11.2285 13.025 11.6509C12.9119 11.9592 12.7302 12.2377 12.4937 12.4655C12.264 12.6996 11.986 12.8809 11.6791 12.9967C11.2567 13.151 10.8113 13.2324 10.3616 13.2376C9.65329 13.273 9.39121 13.2801 7.52829 13.2801C5.66538 13.2801 5.40329 13.2801 4.69496 13.2376C4.22809 13.2463 3.76321 13.1744 3.32079 13.0251C3.02739 12.9033 2.76217 12.7225 2.54163 12.4938C2.30652 12.2663 2.12714 11.9875 2.01746 11.6792C1.84452 11.2508 1.74861 10.7952 1.73413 10.3334C1.73413 9.62508 1.69163 9.363 1.69163 7.50008C1.69163 5.63717 1.69163 5.37508 1.73413 4.66675C1.7373 4.20708 1.82122 3.75154 1.98204 3.32091C2.10674 3.02194 2.29815 2.75542 2.54163 2.54175C2.75683 2.2982 3.02279 2.10477 3.32079 1.97508C3.75256 1.81928 4.20762 1.73785 4.66663 1.73425C5.37496 1.73425 5.63704 1.69175 7.49996 1.69175C9.36288 1.69175 9.62496 1.69175 10.3333 1.73425C10.7829 1.73941 11.2284 1.82084 11.6508 1.97508C11.9727 2.09454 12.2616 2.28876 12.4937 2.54175C12.7258 2.75933 12.9072 3.02535 13.025 3.32091C13.1824 3.75224 13.2639 4.20759 13.2658 4.66675C13.3012 5.37508 13.3083 5.63717 13.3083 7.50008C13.3083 9.363 13.3012 9.62508 13.2658 10.3334ZM7.49996 3.86633C6.78158 3.86773 6.07972 4.08204 5.48309 4.48217C4.88646 4.8823 4.42181 5.4503 4.14787 6.11441C3.87392 6.77851 3.80297 7.50891 3.94398 8.21332C4.08499 8.91774 4.43163 9.56454 4.9401 10.072C5.44857 10.5795 6.09605 10.9249 6.80073 11.0645C7.50542 11.2042 8.23568 11.1318 8.89925 10.8565C9.56282 10.5813 10.1299 10.1156 10.5289 9.51815C10.9279 8.92073 11.1408 8.21847 11.1408 7.50008C11.1417 7.02203 11.0481 6.54851 10.8654 6.10676C10.6827 5.66501 10.4144 5.26374 10.0761 4.92603C9.73771 4.58833 9.33592 4.32085 8.89382 4.13899C8.45171 3.95713 7.97801 3.86446 7.49996 3.86633ZM7.49996 9.85883C7.03344 9.85883 6.5774 9.72049 6.18951 9.46131C5.80161 9.20213 5.49929 8.83374 5.32076 8.40274C5.14223 7.97173 5.09552 7.49747 5.18653 7.03991C5.27754 6.58236 5.50219 6.16207 5.83207 5.83219C6.16195 5.50232 6.58224 5.27767 7.03979 5.18665C7.49734 5.09564 7.97161 5.14235 8.40261 5.32088C8.83362 5.49941 9.20201 5.80174 9.46119 6.18963C9.72037 6.57752 9.85871 7.03357 9.85871 7.50008C9.85871 7.80984 9.7977 8.11656 9.67916 8.40274C9.56062 8.68891 9.38688 8.94894 9.16785 9.16797C8.94882 9.387 8.68879 9.56074 8.40261 9.67928C8.11644 9.79782 7.80972 9.85883 7.49996 9.85883Z" fill="#F2F3F6"/>
</svg>
