<svg width="51" height="76" viewBox="0 0 51 76" fill="none" xmlns="http://www.w3.org/2000/svg">
<path fill-rule="evenodd" clip-rule="evenodd" d="M25.5001 29.9999C32.9559 29.9999 39.0001 23.9558 39.0001 16.4999C39.0001 9.0441 32.9559 2.99995 25.5001 2.99995C18.0443 2.99995 12.0001 9.0441 12.0001 16.4999C12.0001 23.9558 18.0443 29.9999 25.5001 29.9999ZM25.5001 33C34.6128 33 42.0001 25.6126 42.0001 16.4999C42.0001 7.38725 34.6128 -5.1256e-05 25.5001 -5.1256e-05C16.3874 -5.1256e-05 9.0001 7.38725 9.0001 16.4999C9.0001 25.6126 16.3874 33 25.5001 33ZM48.0317 26.804L48 26.8326C42.8657 31.469 32.2085 40.1555 24.5555 40.0286C17.544 39.9122 7.84174 31.5924 2.99996 26.9872L2.95981 26.949C2.80972 26.8061 2.66437 26.6668 2.524 26.5315C2.25373 26.2711 2.00189 26.0255 1.77012 25.7973C1.12387 25.161 -3.50699e-05 25.6246 -3.50699e-05 26.5315V27.5953V28.2022V28.2629V74C-3.50699e-05 74.5523 0.44768 75 0.999965 75H20.2741C20.2843 75.0339 20.2896 75.0514 20.2896 75.0514L30.2203 75.0503C30.2203 75.0503 30.2259 75.0332 30.2365 75H50C50.5522 75 51 74.5523 51 74V28.1542V28.1073V27.5495V26.4343C51 25.5406 49.907 25.0708 49.254 25.681C49.0051 25.9135 48.7326 26.1656 48.4385 26.4343C48.3071 26.5543 48.1715 26.6776 48.0317 26.804ZM31.0597 72H48V30.8296C45.7919 32.725 43.0278 34.9389 40.0505 36.9466C37.7953 38.4674 35.364 39.9066 32.916 41.0001H33L31.2084 44.0001L27.2471 50.633L27.1885 50.7311L27.2666 50.8519C28.8561 53.3224 31.0824 57.3139 31.8784 61.3238C32.539 64.651 31.7578 69.0838 31.0597 72ZM18.3694 41.6187C17.9342 41.4409 17.5039 41.2511 17.0801 41.0525C14.6926 39.9333 12.3167 38.4382 10.1211 36.8619C7.48044 34.9662 5.01554 32.8911 2.99996 31.0752V72H19.5022C18.8555 69.1256 18.123 64.7596 18.6354 61.3232C19.2704 57.0654 21.8933 52.9794 23.7161 50.5715L19.7916 44.0001L18.3694 41.6187ZM27.9692 72H22.5818C22.425 71.3443 22.2549 70.5744 22.0955 69.7353C21.5919 67.0832 21.2606 64.0592 21.6026 61.7657C22.0487 58.7744 23.7588 55.7079 25.343 53.4351C26.753 55.7631 28.338 58.8963 28.9359 61.908C29.351 63.999 29.0445 66.9404 28.5094 69.628C28.3342 70.5083 28.1439 71.317 27.9692 72ZM27.7141 44.0001L25.5 47.7075L23.2859 44.0001H27.7141Z" fill="#F2F3F6"/>
</svg>
