<svg width="51" height="76" viewBox="0 0 51 76" fill="none" xmlns="http://www.w3.org/2000/svg">
<path fill-rule="evenodd" clip-rule="evenodd" d="M25.5001 30C32.956 30 39.0001 23.9558 39.0001 16.5C39.0001 9.04416 32.956 3 25.5001 3C18.0443 3 12.0001 9.04416 12.0001 16.5C12.0001 23.9558 18.0443 30 25.5001 30ZM25.5001 33C34.6128 33 42.0001 25.6127 42.0001 16.5C42.0001 7.3873 34.6128 0 25.5001 0C16.3874 0 9.00014 7.3873 9.00014 16.5C9.00014 25.6127 16.3874 33 25.5001 33ZM48.0317 26.804L48 26.8327C42.8658 31.469 32.2086 40.1556 24.5556 40.0286C17.5441 39.9123 7.84177 31.5925 3 26.9872L2.95984 26.949C2.80975 26.8061 2.66441 26.6668 2.52403 26.5316C2.25376 26.2711 2.00193 26.0255 1.77016 25.7973C1.12391 25.1611 0 25.6247 0 26.5316V27.5953V28.2023V28.263V74C0 74.5523 0.447715 75 1 75H20.2741C20.2843 75.0339 20.2897 75.0514 20.2897 75.0514L30.2203 75.0504C30.2203 75.0504 30.2259 75.0332 30.2366 75H50C50.5523 75 51 74.5523 51 74V28.1542V28.1074V27.5496V26.4344C51 25.5406 49.907 25.0708 49.254 25.681C49.0051 25.9135 48.7327 26.1657 48.4385 26.4344C48.3072 26.5544 48.1715 26.6777 48.0317 26.804ZM31.0597 72H48V30.8296C45.792 32.7251 43.0278 34.939 40.0505 36.9467C37.7954 38.4674 35.3641 39.9067 32.9161 41.0002H33L31.2084 44.0002L27.2472 50.6331L27.1886 50.7312L27.2666 50.852C28.8561 53.3225 31.0824 57.3139 31.8785 61.3239C32.539 64.651 31.7578 69.0839 31.0597 72ZM18.3694 41.6188C17.9342 41.4409 17.504 41.2512 17.0801 41.0525C14.6926 39.9333 12.3167 38.4382 10.1211 36.862C7.48048 34.9662 5.01557 32.8912 3 31.0753V72H19.5022C18.8555 69.1257 18.123 64.7597 18.6355 61.3232C19.2704 57.0655 21.8933 52.9794 23.7162 50.5716L19.7917 44.0002L18.3694 41.6188ZM27.9692 72H22.5818C22.4251 71.3443 22.2549 70.5745 22.0956 69.7354C21.5919 67.0833 21.2606 64.0592 21.6027 61.7657C22.0487 58.7744 23.7589 55.7079 25.343 53.4352C26.7531 55.7632 28.338 58.8963 28.9359 61.908C29.351 63.9991 29.0445 66.9404 28.5095 69.6281C28.3342 70.5084 28.1439 71.3171 27.9692 72ZM27.7141 44.0002L25.5 47.7076L23.2859 44.0002H27.7141Z" fill="#303131"/>
</svg>
