<svg width="6" height="6" viewBox="0 0 6 6" fill="none" xmlns="http://www.w3.org/2000/svg">
<g clip-path="url(#clip0_121:230)">
<path d="M3 5.625C2.30381 5.625 1.63613 5.34844 1.14384 4.85616C0.651562 4.36387 0.375 3.69619 0.375 3C0.375 2.30381 0.651562 1.63613 1.14384 1.14384C1.63613 0.651562 2.30381 0.375 3 0.375C3.69619 0.375 4.36387 0.651562 4.85616 1.14384C5.34844 1.63613 5.625 2.30381 5.625 3C5.625 3.69619 5.34844 4.36387 4.85616 4.85616C4.36387 5.34844 3.69619 5.625 3 5.625ZM3 6C3.79565 6 4.55871 5.68393 5.12132 5.12132C5.68393 4.55871 6 3.79565 6 3C6 2.20435 5.68393 1.44129 5.12132 0.87868C4.55871 0.316071 3.79565 0 3 0C2.20435 0 1.44129 0.316071 0.87868 0.87868C0.316071 1.44129 0 2.20435 0 3C0 3.79565 0.316071 4.55871 0.87868 5.12132C1.44129 5.68393 2.20435 6 3 6V6Z" fill="#7D89A4"/>
<path d="M1.97078 2.16975C1.97027 2.18186 1.97224 2.19395 1.97657 2.20527C1.9809 2.21659 1.9875 2.22691 1.99597 2.23558C2.00443 2.24426 2.01458 2.25111 2.02579 2.25572C2.037 2.26032 2.04904 2.26259 2.06116 2.26238H2.37053C2.42228 2.26238 2.46353 2.22 2.47028 2.16863C2.50403 1.92263 2.67278 1.74338 2.97353 1.74338C3.23078 1.74338 3.46628 1.872 3.46628 2.18138C3.46628 2.4195 3.32603 2.529 3.10441 2.6955C2.85203 2.87888 2.65216 3.093 2.66641 3.44063L2.66753 3.522C2.66793 3.5466 2.67798 3.57007 2.69552 3.58732C2.71306 3.60458 2.73668 3.61425 2.76128 3.61425H3.06541C3.09027 3.61425 3.11412 3.60437 3.1317 3.58679C3.14928 3.56921 3.15916 3.54536 3.15916 3.5205V3.48113C3.15916 3.21188 3.26153 3.1335 3.53791 2.92388C3.76628 2.75025 4.00441 2.5575 4.00441 2.15288C4.00441 1.58625 3.52591 1.3125 3.00203 1.3125C2.52691 1.3125 2.00641 1.53375 1.97078 2.16975V2.16975ZM2.55466 4.33088C2.55466 4.53075 2.71403 4.6785 2.93341 4.6785C3.16178 4.6785 3.31891 4.53075 3.31891 4.33088C3.31891 4.12388 3.16141 3.97838 2.93303 3.97838C2.71403 3.97838 2.55466 4.12388 2.55466 4.33088Z" fill="#7D89A4"/>
</g>
<defs>
<clipPath id="clip0_121:230">
<rect width="6" height="6" fill="white"/>
</clipPath>
</defs>
</svg>
