<svg width="15" height="15" viewBox="0 0 15 15" fill="none" xmlns="http://www.w3.org/2000/svg">
<path fill-rule="evenodd" clip-rule="evenodd" d="M14.2973 0.569195C13.8151 0.754904 0.324971 6.3776 0.234499 6.43062C0.116136 6.49997 0 6.71019 0 6.85506C0 6.9089 0.0296787 7.01573 0.06592 7.09245L0.13184 7.23195L2.06549 8.26342C3.82893 9.20406 4.01204 9.29488 4.14564 9.29504C4.29966 9.29526 4.19541 9.35716 7.52953 7.28585C7.61956 7.22992 7.56624 7.28179 6.49254 8.29493C6.01545 8.74514 5.60364 9.15851 5.56954 9.22147C5.50845 9.33428 5.50798 9.35369 5.50798 11.7317C5.50798 14.023 5.51042 14.1333 5.56356 14.2444C5.67744 14.4826 6.00845 14.5769 6.21412 14.4296C6.29018 14.3751 7.77874 12.3254 7.90604 12.0998C7.92288 12.07 8.45505 12.3798 9.91924 13.2719L11.9096 14.4845L12.0905 14.4849C12.2987 14.4853 12.4032 14.4233 12.4897 14.2482C12.5424 14.1414 15.0009 1.13576 15 0.968844C14.9992 0.824592 14.8805 0.641728 14.7378 0.564881C14.5755 0.477466 14.5345 0.477873 14.2973 0.569195ZM12.83 7.5208C12.246 10.629 11.76 13.1824 11.7501 13.1949C11.7402 13.2074 10.8851 12.7031 9.84989 12.0741C8.54889 11.2837 7.93229 10.9256 7.85315 10.9142C7.77171 10.9026 7.7021 10.9169 7.61212 10.9638C7.50577 11.0193 7.40261 11.1479 6.96555 11.7696L6.44551 12.5094L6.44721 11.09L6.44891 9.67055L9.11627 7.15379C10.5833 5.76957 11.8142 4.59482 11.8515 4.54324C11.953 4.4028 11.97 4.24823 11.9021 4.08425C11.7966 3.82992 11.5709 3.70048 11.3614 3.77427C11.3076 3.79324 9.65599 4.80611 7.69123 6.02513L4.11892 8.2415L2.88073 7.58108C2.15594 7.1945 1.65776 6.91159 1.67923 6.89877C1.69936 6.88673 2.97449 6.35306 4.51283 5.7128C6.05117 5.07257 8.78641 3.93403 10.5912 3.18272C12.3959 2.43144 13.8768 1.82861 13.8822 1.84311C13.8875 1.85762 13.414 4.41259 12.83 7.5208Z" fill="#F2F3F6"/>
</svg>
