<svg width="16" height="15" viewBox="0 0 16 15" fill="none" xmlns="http://www.w3.org/2000/svg">
<path d="M7.94042 4.53563C8.9713 4.53563 9.80699 3.69993 9.80699 2.66905C9.80699 1.63817 8.9713 0.80249 7.94042 0.80249C6.90954 0.80249 6.07385 1.63817 6.07385 2.66905C6.07385 3.69993 6.90954 4.53563 7.94042 4.53563Z" stroke="#435371" stroke-width="1.4" stroke-miterlimit="10" stroke-linecap="round" stroke-linejoin="round"/>
<path d="M13.3085 13.8395C14.3393 13.8395 15.175 13.0038 15.175 11.9729C15.175 10.942 14.3393 10.1063 13.3085 10.1063C12.2776 10.1063 11.4419 10.942 11.4419 11.9729C11.4419 13.0038 12.2776 13.8395 13.3085 13.8395Z" stroke="#435371" stroke-width="1.4" stroke-miterlimit="10" stroke-linecap="round" stroke-linejoin="round"/>
<path d="M2.57214 13.8395C3.60301 13.8395 4.43871 13.0038 4.43871 11.9729C4.43871 10.942 3.60301 10.1063 2.57214 10.1063C1.54126 10.1063 0.705566 10.942 0.705566 11.9729C0.705566 13.0038 1.54126 13.8395 2.57214 13.8395Z" stroke="#435371" stroke-width="1.4" stroke-miterlimit="10" stroke-linecap="round" stroke-linejoin="round"/>
<path d="M3.49811 10.3524L6.99974 4.28961" stroke="#435371" stroke-width="1.4" stroke-miterlimit="10" stroke-linecap="round" stroke-linejoin="round"/>
<path d="M12.3678 10.3524L8.86615 4.28961" stroke="#435371" stroke-width="1.4" stroke-miterlimit="10" stroke-linecap="round" stroke-linejoin="round"/>
<path d="M4.43896 11.973H11.4277" stroke="#435371" stroke-width="1.4" stroke-miterlimit="10" stroke-linecap="round" stroke-linejoin="round"/>
</svg>
