<svg width="16" height="10" viewBox="0 0 16 10" fill="none" xmlns="http://www.w3.org/2000/svg">
<path d="M7.82798 9.52612H8.78398C8.78398 9.52612 9.07298 9.49412 9.21998 9.33512C9.35598 9.18912 9.35098 8.91512 9.35098 8.91512C9.35098 8.91512 9.33198 7.63212 9.92798 7.44312C10.515 7.25712 11.269 8.68312 12.068 9.23212C12.672 9.64712 13.131 9.55612 13.131 9.55612L15.268 9.52612C15.268 9.52612 16.386 9.45712 15.856 8.57812C15.813 8.50612 15.547 7.92812 14.267 6.74012C12.927 5.49612 13.107 5.69812 14.721 3.54712C15.704 2.23712 16.097 1.43712 15.974 1.09512C15.857 0.76912 15.134 0.85512 15.134 0.85512L12.73 0.86912C12.73 0.86912 12.552 0.84512 12.419 0.92412C12.29 1.00212 12.207 1.18212 12.207 1.18212C12.207 1.18212 11.826 2.19612 11.318 3.05812C10.247 4.87712 9.81798 4.97312 9.64298 4.86012C9.23598 4.59712 9.33798 3.80212 9.33798 3.23812C9.33798 1.47512 9.60498 0.74012 8.81698 0.55012C8.55498 0.48712 8.36298 0.44512 7.69398 0.43812C6.83598 0.42912 6.10898 0.44112 5.69798 0.64212C5.42398 0.77612 5.21298 1.07512 5.34198 1.09212C5.50098 1.11312 5.86098 1.18912 6.05198 1.44912C6.29898 1.78412 6.28998 2.53812 6.28998 2.53812C6.28998 2.53812 6.43198 4.61312 5.95898 4.87112C5.63398 5.04812 5.18898 4.68712 4.23398 3.03612C3.74498 2.19112 3.37498 1.25612 3.37498 1.25612C3.37498 1.25612 3.30398 1.08212 3.17698 0.98912C3.02298 0.87612 2.80698 0.84012 2.80698 0.84012L0.520979 0.85412C0.520979 0.85412 0.177979 0.86412 0.0519791 1.01312C-0.0600209 1.14612 0.0429791 1.42012 0.0429791 1.42012C0.0429791 1.42012 1.83298 5.60712 3.85898 7.71812C5.71798 9.65312 7.82798 9.52612 7.82798 9.52612Z" fill="#24314A"/>
</svg>
